<svg width="84" height="84" viewBox="0 0 84 84" fill="none" xmlns="http://www.w3.org/2000/svg">
<rect width="84" height="84" rx="42" fill="#222436"/>
<path d="M30 41C30 39.3431 31.2821 38 32.8636 38H48.1364C49.7179 38 51 39.3431 51 41C51 42.6569 49.7179 44 48.1364 44H32.8636C31.2821 44 30 42.6569 30 41Z" fill="#B5D4F7"/>
<path d="M40.5 30C42.0815 30 43.3636 31.3431 43.3636 33L43.3636 49C43.3636 50.6569 42.0815 52 40.5 52C38.9185 52 37.6364 50.6569 37.6364 49L37.6364 33C37.6364 31.3431 38.9185 30 40.5 30Z" fill="#B5D4F7"/>
</svg>
