<svg width="48" height="48" viewBox="0 0 48 48" fill="none" xmlns="http://www.w3.org/2000/svg">
<rect width="48" height="48" rx="10" fill="#E5A5D4"/>
<path d="M36 15C35.064 15.5498 33.186 16.299 32.082 16.5152C32.0496 16.5235 32.0232 16.5342 31.992 16.5425C31.0164 15.5902 29.6796 15 28.2 15C25.218 15 22.8 17.3927 22.8 20.3434C22.8 20.499 22.7868 20.7851 22.8 20.9371C18.7764 20.9371 15.714 18.852 13.518 16.1874C13.2792 16.7811 13.1748 17.7192 13.1748 18.6003C13.1748 20.2639 14.4888 21.8978 16.5348 22.9106C16.158 23.0068 15.7428 23.0757 15.3108 23.0757C14.6136 23.0757 13.8756 22.894 13.2 22.343C13.2 22.3632 13.2 22.3822 13.2 22.4036C13.2 24.7286 15.6936 26.3114 17.9112 26.752C17.4612 27.0144 16.554 27.0405 16.1112 27.0405C15.7992 27.0405 14.6952 26.8992 14.4 26.8446C15.0168 28.7504 17.2416 29.8214 19.362 29.8594C17.7036 31.1466 16.5528 31.624 13.1568 31.624H12C14.1456 32.9848 16.878 34 19.6164 34C28.5324 34 33.6 27.2756 33.6 20.9371C33.6 20.835 33.5976 20.6213 33.594 20.4063C33.594 20.385 33.6 20.3648 33.6 20.3434C33.6 20.3114 33.5904 20.2805 33.5904 20.2484C33.5868 20.0869 33.5832 19.9361 33.5796 19.8578C34.5276 19.1809 35.3496 18.3367 36 17.3749C35.13 17.7572 34.1964 18.0137 33.216 18.1301C34.2168 17.5363 35.6388 16.1209 36 15Z" fill="#12131C"/>
</svg>
