<svg width="24" height="20" viewBox="0 0 24 20" fill="none" xmlns="http://www.w3.org/2000/svg">
<path d="M24 0.732422C23.064 1.2822 21.186 2.03147 20.082 2.24758C20.0496 2.25589 20.0232 2.26658 19.992 2.27489C19.0164 1.32257 17.6796 0.732422 16.2 0.732422C13.218 0.732422 10.8 3.12508 10.8 6.07584C10.8 6.23139 10.7868 6.51756 10.8 6.66955C6.7764 6.66955 3.714 4.58443 1.518 1.91985C1.2792 2.51356 1.1748 3.45163 1.1748 4.3327C1.1748 5.99628 2.4888 7.63018 4.5348 8.64305C4.158 8.73923 3.7428 8.8081 3.3108 8.8081C2.6136 8.8081 1.8756 8.62643 1.2 8.07546C1.2 8.09565 1.2 8.11465 1.2 8.13602C1.2 10.461 3.6936 12.0438 5.9112 12.4844C5.4612 12.7468 4.554 12.7729 4.1112 12.7729C3.7992 12.7729 2.6952 12.6316 2.4 12.577C3.0168 14.4828 5.2416 15.5539 7.362 15.5919C5.7036 16.879 4.5528 17.3564 1.1568 17.3564H0C2.1456 18.7172 4.878 19.7324 7.6164 19.7324C16.5324 19.7324 21.6 13.008 21.6 6.66955C21.6 6.56743 21.5976 6.3537 21.594 6.13877C21.594 6.1174 21.6 6.09721 21.6 6.07584C21.6 6.04378 21.5904 6.0129 21.5904 5.98084C21.5868 5.81935 21.5832 5.66855 21.5796 5.59018C22.5276 4.91335 23.3496 4.06909 24 3.10727C23.13 3.48962 22.1964 3.74611 21.216 3.86248C22.2168 3.26876 23.6388 1.85335 24 0.732422Z" fill="#12131C"/>
</svg>
