<svg width="24" height="19" viewBox="0 0 24 19" fill="none" xmlns="http://www.w3.org/2000/svg">
<path d="M20.055 2.23992C18.5661 1.53567 16.9742 1.02385 15.3099 0.732422C15.1055 1.10603 14.8667 1.60854 14.7021 2.00828C12.9328 1.73929 11.1799 1.73929 9.44322 2.00828C9.27861 1.60854 9.03439 1.10603 8.82817 0.732422C7.16205 1.02385 5.56829 1.53755 4.07946 2.24365C1.07648 6.83145 0.262417 11.3053 0.669447 15.7156C2.66119 17.2193 4.59142 18.1328 6.48908 18.7306C6.95762 18.0786 7.3755 17.3856 7.73549 16.6552C7.04987 16.3918 6.3932 16.0668 5.77272 15.6895C5.93733 15.5662 6.09835 15.4373 6.25391 15.3046C10.0384 17.0942 14.1503 17.0942 17.8896 15.3046C18.047 15.4373 18.2079 15.5662 18.3708 15.6895C17.7484 16.0687 17.09 16.3937 16.4044 16.6571C16.7644 17.3856 17.1804 18.0805 17.6508 18.7324C19.5503 18.1347 21.4823 17.2212 23.474 15.7156C23.9516 10.6029 22.6582 6.17017 20.055 2.23992ZM8.25107 13.0033C7.11501 13.0033 6.18335 11.9311 6.18335 10.6253C6.18335 9.31961 7.09512 8.24552 8.25107 8.24552C9.40706 8.24552 10.3387 9.31773 10.3188 10.6253C10.3206 11.9311 9.40706 13.0033 8.25107 13.0033ZM15.8924 13.0033C14.7563 13.0033 13.8247 11.9311 13.8247 10.6253C13.8247 9.31961 14.7364 8.24552 15.8924 8.24552C17.0484 8.24552 17.98 9.31773 17.9601 10.6253C17.9601 11.9311 17.0484 13.0033 15.8924 13.0033Z" fill="#12131C"/>
</svg>
