<svg width="19" height="16" viewBox="0 0 19 16" fill="none" xmlns="http://www.w3.org/2000/svg">
<path d="M16.1175 1.65579C14.8971 1.0785 13.5921 0.658942 12.2278 0.420044C12.0603 0.726302 11.8645 1.13823 11.7295 1.46591C10.2793 1.24541 8.84231 1.24541 7.4187 1.46591C7.28376 1.13823 7.08357 0.726302 6.91452 0.420044C5.54875 0.658942 4.24229 1.08004 3.02184 1.65885C0.560189 5.41963 -0.107125 9.08699 0.226533 12.7023C1.85923 13.9349 3.44151 14.6838 4.99709 15.1738C5.38117 14.6393 5.72372 14.0712 6.01881 13.4725C5.45679 13.2566 4.91849 12.9902 4.40986 12.6809C4.5448 12.5798 4.67679 12.4741 4.80431 12.3654C7.90657 13.8324 11.2773 13.8324 14.3425 12.3654C14.4715 12.4741 14.6034 12.5798 14.7369 12.6809C14.2268 12.9917 13.687 13.2581 13.125 13.4741C13.4201 14.0712 13.7612 14.6409 14.1467 15.1753C15.7038 14.6853 17.2875 13.9365 18.9202 12.7023C19.3117 8.51124 18.2514 4.87755 16.1175 1.65579ZM6.44145 10.4789C5.51018 10.4789 4.74647 9.59996 4.74647 8.52961C4.74647 7.45926 5.49388 6.57879 6.44145 6.57879C7.38906 6.57879 8.15275 7.45772 8.13644 8.52961C8.13791 9.59996 7.38906 10.4789 6.44145 10.4789ZM12.7053 10.4789C11.7741 10.4789 11.0103 9.59996 11.0103 8.52961C11.0103 7.45926 11.7577 6.57879 12.7053 6.57879C13.6529 6.57879 14.4166 7.45772 14.4003 8.52961C14.4003 9.59996 13.6529 10.4789 12.7053 10.4789Z" fill="#B5D4F7"/>
</svg>
