<svg width="20" height="16" viewBox="0 0 20 16" fill="none" xmlns="http://www.w3.org/2000/svg">
<path d="M19.6736 0.420044C18.9064 0.870716 17.3669 1.48492 16.4619 1.66207C16.4354 1.66888 16.4137 1.67764 16.3881 1.68446C15.5884 0.903811 14.4926 0.420044 13.2797 0.420044C10.8353 0.420044 8.85313 2.38139 8.85313 4.80023C8.85313 4.92774 8.84231 5.16232 8.85313 5.28691C5.55485 5.28691 3.04449 3.57767 1.24436 1.39342C1.0486 1.88011 0.963024 2.64907 0.963024 3.37131C0.963024 4.73501 2.04016 6.07437 3.71733 6.90466C3.40846 6.98351 3.0681 7.03996 2.71398 7.03996C2.14246 7.03996 1.53749 6.89103 0.983682 6.43939C0.983682 6.45594 0.983682 6.47151 0.983682 6.48903C0.983682 8.3949 3.02777 9.6924 4.84562 10.0535C4.47674 10.2686 3.73307 10.2901 3.37009 10.2901C3.11434 10.2901 2.20935 10.1742 1.96736 10.1294C2.47298 11.6917 4.29672 12.5697 6.03489 12.6008C4.67544 13.656 3.73209 14.0473 0.948269 14.0473H0C1.75882 15.1628 3.99867 15.995 6.24343 15.995C13.5522 15.995 17.7063 10.4828 17.7063 5.28691C17.7063 5.2032 17.7043 5.028 17.7013 4.85182C17.7013 4.8343 17.7063 4.81775 17.7063 4.80023C17.7063 4.77395 17.6984 4.74864 17.6984 4.72236C17.6954 4.58998 17.6925 4.46636 17.6895 4.40212C18.4667 3.84729 19.1405 3.15523 19.6736 2.36679C18.9605 2.68022 18.1952 2.89047 17.3915 2.98586C18.2119 2.49917 19.3775 1.33891 19.6736 0.420044Z" fill="#B5D4F7"/>
</svg>
