<svg width="18" height="18" viewBox="0 0 18 18" fill="none" xmlns="http://www.w3.org/2000/svg">
<path fill-rule="evenodd" clip-rule="evenodd" d="M8.91058 17.683C13.7933 17.683 17.7521 13.7242 17.7521 8.84149C17.7521 3.95874 13.7944 0 8.91058 0C4.02783 0 0.0690918 3.95874 0.0690918 8.84149C0.0690918 13.7242 4.02783 17.683 8.91058 17.683ZM14.6829 10.3763V9.80676C14.6829 9.75407 14.6321 9.71593 14.5821 9.73046L11.8924 10.508C11.8779 10.5117 11.8651 10.5198 11.8551 10.5307C11.5671 10.849 11.3222 11.0625 11.2574 11.1191L11.2529 11.123C11.0857 11.2647 10.8786 11.3419 10.6606 11.3419H9.68683V10.3491H10.4608C10.4808 10.3491 10.4998 10.3418 10.5144 10.3291L10.6143 10.2373C10.657 10.1983 10.7079 10.151 10.7687 10.0902L10.7844 10.0745C10.8164 10.0426 10.8506 10.0086 10.8841 9.97118C10.9241 9.93212 10.9631 9.88851 10.9994 9.84583C11.0603 9.78042 11.1184 9.71228 11.1793 9.64053C11.2229 9.5933 11.2629 9.5397 11.3019 9.4861C11.3455 9.43523 11.3882 9.378 11.4282 9.32351C11.4431 9.30164 11.4589 9.27954 11.4751 9.25696C11.4905 9.23544 11.5062 9.21348 11.5218 9.19088C11.5508 9.14728 11.5799 9.10095 11.6044 9.05734C11.6807 8.93925 11.7452 8.81298 11.7997 8.68672C11.8247 8.63264 11.8448 8.5757 11.8642 8.52034L11.8715 8.4996C11.8933 8.43509 11.9115 8.37425 11.9251 8.30974C11.9578 8.15804 11.9651 8.00726 11.9505 7.85645C11.9469 7.80922 11.9432 7.76289 11.9324 7.71931V7.71204C11.9287 7.68115 11.9214 7.64663 11.9115 7.61483C11.8788 7.46768 11.8279 7.32052 11.7634 7.17608C11.7416 7.12249 11.7162 7.06799 11.6916 7.01803C11.6335 6.90994 11.5726 6.80182 11.5036 6.69737C11.4897 6.67531 11.4744 6.65297 11.4592 6.63066L11.4592 6.63064C11.4474 6.61345 11.4356 6.59628 11.4246 6.57928C11.3809 6.51185 11.3317 6.44685 11.284 6.38376L11.252 6.34129C11.2238 6.30431 11.193 6.26734 11.162 6.23013C11.145 6.20973 11.1279 6.18927 11.1112 6.16868C11.0639 6.11146 11.0176 6.05696 10.9704 6.00337C10.8014 5.8126 10.6243 5.64002 10.4662 5.49286C10.4372 5.46379 10.4054 5.43472 10.3727 5.40657C10.25 5.29483 10.1383 5.19762 10.0447 5.12224C10.0166 5.10062 9.99141 5.07931 9.96794 5.05948C9.95197 5.04599 9.93681 5.03318 9.9221 5.02141C9.89373 5.00026 9.86911 4.98151 9.84844 4.96577L9.81401 4.93965C9.80674 4.9342 9.79857 4.93058 9.7904 4.92783L9.68683 4.89878V4.04126C9.68683 3.90137 9.63051 3.77602 9.54059 3.68426C9.45066 3.59252 9.3253 3.5362 9.18723 3.5362C8.91108 3.5362 8.68762 3.76239 8.68762 4.04126V4.61898L8.63584 4.60447L8.49503 4.56449L8.36695 4.52907C8.36695 4.52907 8.36513 4.52815 8.36333 4.52815H8.36061L7.38863 4.26472C7.34594 4.25291 7.3096 4.29924 7.3314 4.3383L7.48673 4.62535C7.49556 4.64741 7.50673 4.66947 7.51821 4.69215C7.52564 4.70682 7.53319 4.72174 7.54033 4.73709C7.56577 4.78794 7.5912 4.84154 7.61573 4.89514C7.63753 4.94237 7.65933 4.9887 7.68476 5.03957L7.71741 5.11225L7.71743 5.11229L7.71748 5.1124C7.75806 5.20251 7.80072 5.29726 7.84281 5.3993C7.87915 5.48559 7.91549 5.57188 7.94728 5.66182C8.0345 5.888 8.11715 6.12962 8.18892 6.37763C8.20678 6.43313 8.22106 6.48684 8.23553 6.54128C8.24166 6.56435 8.24782 6.58755 8.25431 6.61108L8.2643 6.65467C8.29338 6.77005 8.31882 6.88449 8.33698 6.99986C8.35152 7.07888 8.36513 7.15428 8.3724 7.23058C8.38331 7.31688 8.3942 7.40319 8.39785 7.48948C8.40511 7.5685 8.40874 7.65117 8.40874 7.7302C8.40874 7.93186 8.39058 8.12624 8.34787 8.30974L8.33983 8.33964C8.32787 8.3843 8.31548 8.43059 8.30064 8.47508C8.28723 8.52271 8.26984 8.57033 8.25179 8.61979L8.25179 8.6198L8.25178 8.61981C8.24539 8.63731 8.23892 8.65505 8.23251 8.67309L8.22893 8.68273C8.21557 8.71871 8.20196 8.75534 8.18528 8.79119C8.09534 9.00739 7.98362 9.22268 7.86826 9.42433C7.6993 9.72319 7.52943 9.98572 7.41043 10.1547C7.40318 10.1656 7.39611 10.1759 7.38929 10.1859L7.38922 10.186L7.3892 10.186C7.38068 10.1984 7.37257 10.2103 7.36502 10.2219C7.32778 10.2746 7.36592 10.3491 7.43041 10.3491H8.68762V11.3419H7.41587C7.07433 11.3419 6.75821 11.1484 6.60561 10.8387C6.52658 10.6833 6.49569 10.5126 6.51387 10.3454C6.51839 10.2955 6.48115 10.2482 6.4303 10.2482H3.86138C3.81778 10.2482 3.78236 10.2837 3.78236 10.3273V10.3799C3.78236 12.0187 5.10588 13.3467 6.73913 13.3467H11.3473C12.2112 13.3467 12.7017 12.5596 13.1838 11.7859L13.1838 11.7859L13.1838 11.7858C13.3182 11.5702 13.4519 11.3556 13.5929 11.1593C13.8463 10.8069 14.4558 10.5271 14.6339 10.4508C14.6629 10.4381 14.6829 10.409 14.6829 10.3763ZM4.46923 9.07829L4.43109 9.13825C4.39747 9.19003 4.43471 9.25906 4.4983 9.25906H6.86372C6.89007 9.25906 6.91459 9.24635 6.92913 9.22455C6.96002 9.17732 6.98909 9.12826 7.01542 9.07829C7.21982 8.73492 7.40149 8.3634 7.4678 8.08907C7.62313 7.42232 7.29157 6.35133 6.90732 5.49018C6.8819 5.43296 6.80287 5.42752 6.76926 5.48019L4.46923 9.07829Z" fill="#B5D4F7"/>
</svg>
