<svg width="22" height="22" viewBox="0 0 22 22" fill="none" xmlns="http://www.w3.org/2000/svg">
<path fill-rule="evenodd" clip-rule="evenodd" d="M10.7858 21.5716C16.7423 21.5716 21.5716 16.7423 21.5716 10.7858C21.5716 4.8293 16.7435 0 10.7858 0C4.8293 0 0 4.8293 0 10.7858C0 16.7423 4.8293 21.5716 10.7858 21.5716ZM17.8279 12.6583V11.9635C17.8279 11.8992 17.7659 11.8527 17.7049 11.8704L14.4238 12.819C14.406 12.8234 14.3905 12.8333 14.3783 12.8466C14.0269 13.2348 13.7282 13.4954 13.6491 13.5644L13.6436 13.5691C13.4397 13.742 13.1871 13.8362 12.9211 13.8362H11.7332V12.625H12.6773C12.7017 12.625 12.725 12.6162 12.7427 12.6006L12.8646 12.4887C12.9167 12.4411 12.9787 12.3834 13.053 12.3092L13.0721 12.2901C13.1111 12.2512 13.1528 12.2097 13.1937 12.164C13.2425 12.1164 13.2901 12.0632 13.3344 12.0111C13.4087 11.9313 13.4796 11.8482 13.5539 11.7607C13.6071 11.7031 13.6558 11.6377 13.7035 11.5723C13.7567 11.5102 13.8087 11.4404 13.8575 11.3739C13.8756 11.3473 13.895 11.3203 13.9147 11.2928L13.9147 11.2927C13.9335 11.2665 13.9527 11.2397 13.9716 11.2121C14.0071 11.159 14.0425 11.1024 14.0725 11.0492C14.1655 10.9052 14.2442 10.7511 14.3107 10.5971C14.3412 10.5312 14.3656 10.4617 14.3893 10.3942L14.3894 10.3942L14.3983 10.3689C14.4249 10.2902 14.447 10.2159 14.4636 10.1372C14.5035 9.95217 14.5124 9.76823 14.4947 9.58427C14.4902 9.52665 14.4858 9.47014 14.4725 9.41696V9.4081C14.4681 9.37041 14.4592 9.3283 14.447 9.28952C14.4071 9.11 14.3451 8.93048 14.2664 8.75428C14.2398 8.6889 14.2088 8.62241 14.1789 8.56148C14.1079 8.42961 14.0337 8.29772 13.9495 8.1703C13.9326 8.14338 13.9139 8.11611 13.8953 8.08889L13.8952 8.08888C13.8809 8.06791 13.8666 8.04697 13.8531 8.02624C13.7997 7.944 13.7398 7.86471 13.6816 7.78777L13.6816 7.78776L13.6816 7.78774L13.6425 7.73591C13.6082 7.6908 13.5706 7.64571 13.5327 7.60031L13.5327 7.60028L13.5327 7.60025C13.5119 7.57539 13.4911 7.55044 13.4707 7.52535C13.4131 7.45554 13.3566 7.38906 13.299 7.32368C13.0929 7.09096 12.8768 6.88042 12.684 6.7009C12.6485 6.66544 12.6097 6.62998 12.5698 6.59563C12.4202 6.45932 12.2839 6.34074 12.1698 6.24879C12.1355 6.2224 12.1047 6.19641 12.0761 6.17221C12.0566 6.15576 12.0381 6.14013 12.0202 6.12578C11.9856 6.09999 11.9556 6.07712 11.9304 6.05792L11.8883 6.02604C11.8795 6.01939 11.8695 6.01497 11.8595 6.01163L11.7332 5.97619V4.93009C11.7332 4.75944 11.6645 4.60652 11.5548 4.49458C11.4451 4.38267 11.2921 4.31396 11.1237 4.31396C10.7868 4.31396 10.5142 4.58989 10.5142 4.93009V5.63486L10.4511 5.61715L10.2793 5.56837L10.1231 5.52517C10.1231 5.52517 10.1208 5.52404 10.1186 5.52404H10.1153L8.92958 5.20269C8.87751 5.18828 8.83318 5.2448 8.85978 5.29245L9.04926 5.64262C9.06003 5.66954 9.07365 5.69645 9.08766 5.7241L9.08769 5.72417L9.0877 5.7242C9.09675 5.74206 9.10596 5.76024 9.11465 5.77893C9.14569 5.84097 9.17671 5.90636 9.20663 5.97174C9.23322 6.02936 9.25982 6.08588 9.29084 6.14794L9.33068 6.23661C9.3802 6.34659 9.43228 6.46223 9.48365 6.58677L9.48367 6.58682C9.52799 6.69207 9.57231 6.79732 9.61109 6.90702C9.71749 7.18294 9.81831 7.4777 9.90587 7.78024C9.92765 7.84792 9.94506 7.91342 9.9627 7.97981L9.96272 7.97986L9.96272 7.97989L9.96278 7.98011C9.97024 8.00818 9.97775 8.0364 9.98564 8.06503L9.99783 8.1182C10.0333 8.25896 10.0643 8.39857 10.0865 8.5393C10.1042 8.6357 10.1208 8.72768 10.1297 8.82077C10.143 8.92603 10.1563 9.03133 10.1607 9.13659C10.1696 9.233 10.174 9.33385 10.174 9.43025C10.174 9.67625 10.1519 9.91339 10.0998 10.1372L10.09 10.1738C10.0754 10.2282 10.0603 10.2847 10.0422 10.3389C10.0258 10.397 10.0046 10.4551 9.98256 10.5155C9.97476 10.5368 9.96687 10.5585 9.95904 10.5805L9.95466 10.5923C9.93837 10.6362 9.92178 10.6808 9.90143 10.7246C9.79171 10.9883 9.65542 11.2509 9.51469 11.4969C9.30857 11.8615 9.10136 12.1818 8.95618 12.3879C8.9473 12.4012 8.93864 12.4139 8.93029 12.4261C8.9199 12.4413 8.91 12.4557 8.90079 12.4699C8.85536 12.5341 8.90189 12.625 8.98056 12.625H10.5142V13.8362H8.96282C8.54617 13.8362 8.16053 13.6002 7.97437 13.2223C7.87797 13.0328 7.84028 12.8245 7.86246 12.6206C7.86798 12.5596 7.82255 12.502 7.76051 12.502H4.62668C4.57348 12.502 4.53027 12.5452 4.53027 12.5984V12.6627C4.53027 14.6618 6.14484 16.2819 8.13726 16.2819H13.7589C14.8126 16.2819 15.411 15.3216 15.9991 14.3778L15.9991 14.3778C16.1631 14.1147 16.3262 13.8529 16.4982 13.6135C16.8074 13.1835 17.5509 12.8422 17.7681 12.7491C17.8036 12.7336 17.8279 12.6982 17.8279 12.6583ZM5.36819 11.0748L5.32166 11.1479C5.28066 11.2111 5.32609 11.2953 5.40366 11.2953H8.28924C8.32139 11.2953 8.35131 11.2798 8.36904 11.2532C8.40672 11.1956 8.44219 11.1358 8.47431 11.0748C8.72365 10.6559 8.94528 10.2027 9.02617 9.86804C9.21566 9.05466 8.81119 7.74816 8.34244 6.69764C8.31142 6.62784 8.21502 6.62119 8.17401 6.68545L5.36819 11.0748Z" fill="#12131C"/>
</svg>
